<mxfile host="65bd71144e">
    <diagram id="O0y6QrAf6mKY-jh2SWdq" name="Page-1">
        <mxGraphModel dx="1126" dy="1139" grid="1" gridSize="10" guides="1" tooltips="1" connect="1" arrows="1" fold="1" page="1" pageScale="1" pageWidth="850" pageHeight="1100" math="0" shadow="0">
            <root>
                <mxCell id="0"/>
                <mxCell id="1" parent="0"/>
                <mxCell id="4" value="" style="edgeStyle=none;html=1;strokeColor=#30A112;fillColor=#F5FFF4;" parent="1" source="2" target="3" edge="1">
                    <mxGeometry relative="1" as="geometry"/>
                </mxCell>
                <mxCell id="2" value="&lt;font style=&quot;font-size: 12px;&quot;&gt;输入n(n&amp;gt;1)&lt;/font&gt;" style="rounded=0;whiteSpace=wrap;html=1;strokeColor=#30A112;fillColor=#F5FFF4;" parent="1" vertex="1">
                    <mxGeometry x="250" y="140" width="120" height="30" as="geometry"/>
                </mxCell>
                <mxCell id="7" value="" style="edgeStyle=none;html=1;strokeColor=#30A112;fillColor=#F5FFF4;" parent="1" source="3" target="6" edge="1">
                    <mxGeometry relative="1" as="geometry"/>
                </mxCell>
                <mxCell id="3" value="&lt;font style=&quot;font-size: 12px;&quot;&gt;i = 2;&lt;/font&gt;" style="whiteSpace=wrap;html=1;rounded=0;strokeColor=#30A112;fillColor=#F5FFF4;" parent="1" vertex="1">
                    <mxGeometry x="250" y="210" width="120" height="30" as="geometry"/>
                </mxCell>
                <mxCell id="9" value="" style="edgeStyle=none;html=1;exitX=0.5;exitY=1;exitDx=0;exitDy=0;strokeColor=#30A112;fillColor=#F5FFF4;" parent="1" source="6" target="8" edge="1">
                    <mxGeometry relative="1" as="geometry"/>
                </mxCell>
                <mxCell id="12" value="true" style="edgeLabel;html=1;align=center;verticalAlign=middle;resizable=0;points=[];strokeColor=#30A112;fillColor=#F5FFF4;" parent="9" vertex="1" connectable="0">
                    <mxGeometry x="0.175" y="-1" relative="1" as="geometry">
                        <mxPoint x="1" y="-8" as="offset"/>
                    </mxGeometry>
                </mxCell>
                <mxCell id="13" style="edgeStyle=none;html=1;exitX=1;exitY=0.5;exitDx=0;exitDy=0;strokeColor=#30A112;fillColor=#F5FFF4;" parent="1" source="6" edge="1">
                    <mxGeometry relative="1" as="geometry">
                        <mxPoint x="310" y="570" as="targetPoint"/>
                        <Array as="points">
                            <mxPoint x="400" y="330"/>
                            <mxPoint x="400" y="570"/>
                        </Array>
                    </mxGeometry>
                </mxCell>
                <mxCell id="14" value="false" style="edgeLabel;html=1;align=center;verticalAlign=middle;resizable=0;points=[];strokeColor=#30A112;fillColor=#F5FFF4;" parent="13" vertex="1" connectable="0">
                    <mxGeometry x="-0.4846" y="-2" relative="1" as="geometry">
                        <mxPoint as="offset"/>
                    </mxGeometry>
                </mxCell>
                <mxCell id="6" value="i &amp;lt; n" style="rhombus;whiteSpace=wrap;html=1;rounded=0;strokeColor=#30A112;fillColor=#F5FFF4;" parent="1" vertex="1">
                    <mxGeometry x="270" y="290" width="80" height="80" as="geometry"/>
                </mxCell>
                <mxCell id="11" value="" style="edgeStyle=none;html=1;strokeColor=#30A112;fillColor=#F5FFF4;" parent="1" source="8" target="10" edge="1">
                    <mxGeometry relative="1" as="geometry"/>
                </mxCell>
                <mxCell id="16" value="true" style="edgeLabel;html=1;align=center;verticalAlign=middle;resizable=0;points=[];strokeColor=#30A112;fillColor=#F5FFF4;" parent="11" vertex="1" connectable="0">
                    <mxGeometry x="-0.28" y="-1" relative="1" as="geometry">
                        <mxPoint as="offset"/>
                    </mxGeometry>
                </mxCell>
                <mxCell id="17" style="edgeStyle=none;html=1;exitX=0;exitY=0.5;exitDx=0;exitDy=0;strokeColor=#30A112;fillColor=#F5FFF4;" parent="1" source="8" edge="1">
                    <mxGeometry relative="1" as="geometry">
                        <mxPoint x="310" y="260" as="targetPoint"/>
                        <Array as="points">
                            <mxPoint x="200" y="440"/>
                            <mxPoint x="200" y="260"/>
                        </Array>
                    </mxGeometry>
                </mxCell>
                <mxCell id="18" value="false" style="edgeLabel;html=1;align=center;verticalAlign=middle;resizable=0;points=[];strokeColor=#30A112;fillColor=#F5FFF4;" parent="17" vertex="1" connectable="0">
                    <mxGeometry x="0.1579" y="1" relative="1" as="geometry">
                        <mxPoint y="53" as="offset"/>
                    </mxGeometry>
                </mxCell>
                <mxCell id="8" value="n % i&amp;nbsp; == 0" style="rhombus;whiteSpace=wrap;html=1;rounded=0;strokeColor=#30A112;fillColor=#F5FFF4;" parent="1" vertex="1">
                    <mxGeometry x="270" y="400" width="80" height="80" as="geometry"/>
                </mxCell>
                <mxCell id="20" value="" style="edgeStyle=none;html=1;strokeColor=#30A112;fillColor=#F5FFF4;" parent="1" source="10" target="19" edge="1">
                    <mxGeometry relative="1" as="geometry"/>
                </mxCell>
                <mxCell id="10" value="终止循环" style="whiteSpace=wrap;html=1;rounded=0;strokeColor=#30A112;fillColor=#F5FFF4;" parent="1" vertex="1">
                    <mxGeometry x="250" y="520" width="120" height="30" as="geometry"/>
                </mxCell>
                <mxCell id="22" value="" style="edgeStyle=none;html=1;exitX=1;exitY=0.5;exitDx=0;exitDy=0;strokeColor=#30A112;fillColor=#F5FFF4;" parent="1" source="19" target="21" edge="1">
                    <mxGeometry relative="1" as="geometry">
                        <Array as="points">
                            <mxPoint x="420" y="630"/>
                        </Array>
                    </mxGeometry>
                </mxCell>
                <mxCell id="24" value="true" style="edgeLabel;html=1;align=center;verticalAlign=middle;resizable=0;points=[];strokeColor=#30A112;fillColor=#F5FFF4;" parent="22" vertex="1" connectable="0">
                    <mxGeometry x="-0.2" y="-2" relative="1" as="geometry">
                        <mxPoint as="offset"/>
                    </mxGeometry>
                </mxCell>
                <mxCell id="26" value="" style="edgeStyle=none;html=1;strokeColor=#30A112;fillColor=#F5FFF4;" parent="1" source="19" target="25" edge="1">
                    <mxGeometry relative="1" as="geometry">
                        <Array as="points">
                            <mxPoint x="200" y="630"/>
                        </Array>
                    </mxGeometry>
                </mxCell>
                <mxCell id="27" value="false" style="edgeLabel;html=1;align=center;verticalAlign=middle;resizable=0;points=[];strokeColor=#30A112;fillColor=#F5FFF4;" parent="26" vertex="1" connectable="0">
                    <mxGeometry x="-0.4167" relative="1" as="geometry">
                        <mxPoint as="offset"/>
                    </mxGeometry>
                </mxCell>
                <mxCell id="19" value="i == n" style="rhombus;whiteSpace=wrap;html=1;rounded=0;strokeColor=#30A112;fillColor=#F5FFF4;" parent="1" vertex="1">
                    <mxGeometry x="270" y="590" width="80" height="80" as="geometry"/>
                </mxCell>
                <mxCell id="30" style="edgeStyle=none;html=1;exitX=0.5;exitY=1;exitDx=0;exitDy=0;entryX=1;entryY=0.5;entryDx=0;entryDy=0;strokeColor=#30A112;fillColor=#F5FFF4;" parent="1" source="21" target="28" edge="1">
                    <mxGeometry relative="1" as="geometry">
                        <Array as="points">
                            <mxPoint x="420" y="753"/>
                        </Array>
                    </mxGeometry>
                </mxCell>
                <mxCell id="21" value="是素数" style="whiteSpace=wrap;html=1;rounded=0;strokeColor=#30A112;fillColor=#F5FFF4;" parent="1" vertex="1">
                    <mxGeometry x="360" y="675" width="120" height="35" as="geometry"/>
                </mxCell>
                <mxCell id="29" value="" style="edgeStyle=none;html=1;strokeColor=#30A112;fillColor=#F5FFF4;" parent="1" source="25" target="28" edge="1">
                    <mxGeometry relative="1" as="geometry">
                        <Array as="points">
                            <mxPoint x="200" y="753"/>
                        </Array>
                    </mxGeometry>
                </mxCell>
                <mxCell id="25" value="非素数" style="whiteSpace=wrap;html=1;rounded=0;strokeColor=#30A112;fillColor=#F5FFF4;" parent="1" vertex="1">
                    <mxGeometry x="140" y="680" width="120" height="30" as="geometry"/>
                </mxCell>
                <mxCell id="28" value="结束" style="ellipse;whiteSpace=wrap;html=1;rounded=0;strokeColor=#30A112;fillColor=#F5FFF4;" parent="1" vertex="1">
                    <mxGeometry x="290" y="730" width="40" height="45" as="geometry"/>
                </mxCell>
            </root>
        </mxGraphModel>
    </diagram>
</mxfile>